<svg xmlns="http://www.w3.org/2000/svg" width="20" height="20" viewBox="0 0 20 20" fill="none">
    <path
        d="M7.5 1.25C7.03976 1.25 6.66667 1.6231 6.66667 2.08333C6.66667 2.54357 7.03976 2.91667 7.5 2.91667H12.5C12.9602 2.91667 13.3333 2.54357 13.3333 2.08333C13.3333 1.6231 12.9602 1.25 12.5 1.25H7.5Z"
        fill="currentColor" />
    <path
        d="M3.33333 3.75C2.8731 3.75 2.5 4.1231 2.5 4.58333C2.5 5.04357 2.8731 5.41667 3.33333 5.41667H16.6667C17.1269 5.41667 17.5 5.04357 17.5 4.58333C17.5 4.1231 17.1269 3.75 16.6667 3.75H3.33333Z"
        fill="currentColor" />
    <path
        d="M8.33333 10C8.79357 10 9.16667 10.3731 9.16667 10.8333V14.5833C9.16667 15.0436 8.79357 15.4167 8.33333 15.4167C7.8731 15.4167 7.5 15.0436 7.5 14.5833V10.8333C7.5 10.3731 7.8731 10 8.33333 10Z"
        fill="currentColor" />
    <path
        d="M11.6667 10C12.1269 10 12.5 10.3731 12.5 10.8333V14.5833C12.5 15.0436 12.1269 15.4167 11.6667 15.4167C11.2064 15.4167 10.8333 15.0436 10.8333 14.5833V10.8333C10.8333 10.3731 11.2064 10 11.6667 10Z"
        fill="currentColor" />
    <path fill-rule="evenodd" clip-rule="evenodd"
        d="M5 6.25C4.07953 6.25 3.33333 6.99619 3.33333 7.91667V16.25C3.33333 17.6307 4.45262 18.75 5.83333 18.75H13.3333C15.5474 18.75 16.6667 17.6307 16.6667 16.25V7.91667C16.6667 6.99619 15.9205 6.25 15 6.25H5ZM5 7.91667H15V16.25C15 16.7102 14.6269 17.0833 13.3333 17.0833H5.83333C5.3731 17.0833 5 16.7102 5 16.25V7.91667Z"
        fill="currentColor" />
</svg>