<svg xmlns="http://www.w3.org/2000/svg" width="34" height="34" viewBox="0 0 34 34" fill="none">
    <g>
        <path
            d="M13.4647 12.0502C13.0742 11.6597 12.441 11.6597 12.0505 12.0502C11.6599 12.4407 11.6599 13.0739 12.0505 13.4644L15.586 17L12.0505 20.5355C11.6599 20.9261 11.6599 21.5592 12.0505 21.9498C12.441 22.3403 13.0742 22.3403 13.4647 21.9498L17.0002 18.4142L20.5357 21.9497C20.9263 22.3402 21.5594 22.3402 21.95 21.9497C22.3405 21.5592 22.3405 20.926 21.95 20.5355L18.4144 17L21.95 13.4645C22.3405 13.0739 22.3405 12.4408 21.95 12.0503C21.5594 11.6597 20.9263 11.6597 20.5357 12.0503L17.0002 15.5858L13.4647 12.0502Z"
            fill="currentColor" />
        <path fill-rule="evenodd" clip-rule="evenodd"
            d="M17 2C8.71573 2 2 8.71573 2 17C2 25.2843 8.71573 32 17 32C25.2843 32 32 25.2843 32 17C32 8.71573 25.2843 2 17 2ZM0 17C0 7.61116 7.61116 0 17 0C26.3888 0 34 7.61116 34 17C34 26.3888 26.3888 34 17 34C7.61116 34 0 26.3888 0 17Z"
            fill="currentColor" fill-opacity="0.08" />
    </g>
</svg>